<?xml version="1.0" standalone="no"?>
<!DOCTYPE svg PUBLIC "-//W3C//DTD SVG 20010904//EN"
 "http://www.w3.org/TR/2001/REC-SVG-20010904/DTD/svg10.dtd">
<svg version="1.0" xmlns="http://www.w3.org/2000/svg"
 width="60px" height="60px" viewBox="0 0 370.000000 370.000000"
 preserveAspectRatio="xMidYMid meet">
<g transform="translate(0.000000,370.000000) scale(0.100000,-0.100000)"
fill="#d5001c" stroke="none">
<path d="M1656 3690 c-468 -54 -891 -274 -1197 -623 -383 -437 -536 -1020
-419 -1595 180 -879 990 -1510 1886 -1468 380 17 729 141 1031 364 112 83 289
261 375 375 173 233 295 520 345 812 23 138 23 452 0 590 -102 598 -481 1107
-1022 1370 -127 62 -340 131 -480 155 -137 24 -397 34 -519 20z m-502 -1302
c10 -360 46 -942 60 -955 3 -3 19 31 320 702 l225 500 201 3 c155 2 201 0 205
-10 4 -13 68 -858 81 -1076 4 -62 10 -114 13 -116 12 -8 307 653 439 987 l87
217 197 0 c109 0 198 -2 198 -4 0 -3 -34 -85 -76 -183 -159 -374 -345 -758
-577 -1195 l-132 -247 -227 -1 c-126 0 -228 3 -228 6 0 4 -18 234 -40 513 -22
278 -41 524 -42 546 l-4 40 -37 -80 c-51 -108 -61 -130 -276 -605 l-188 -415
-231 -3 c-213 -2 -231 -1 -236 15 -7 23 -50 353 -70 538 -35 314 -66 774 -66
978 l0 97 199 0 198 0 7 -252z"/>
</g>
</svg>
