<svg
   xmlns="http://www.w3.org/2000/svg"
   viewBox="0 0 190 60"
   height="44"
   width="195"
   xml:space="preserve"
   id="logo-image-xl"
   version="1.1">
   <g
     transform="matrix(1.3333333,0,0,-1.3333333,-90,87)"
     id="g10">
      <g
       transform="scale(0.1)"
       id="g12">
         <path
         id="path14"
         class="circle-red"
         style="fill:#de182c;fill-opacity:1;fill-rule:nonzero;stroke:none"
         d="m 2366.93,425.195 c 0,-117.414 -95.18,-212.597 -212.6,-212.597 -117.42,0 -212.59,95.183 -212.59,212.597 0,117.422 95.17,212.598 212.59,212.598 117.42,0 212.6,-95.176 212.6,-212.598" />
         <path
         id="path16"
         class="w-in-circle-red"
         style="fill:#ffffff;fill-opacity:1;fill-rule:nonzero;stroke:none"
         d="m 2260.89,515.457 c -4.45,-11.672 -9.05,-23.359 -13.82,-35.059 -4.76,-11.707 -9.69,-23.386 -14.78,-35.058 -5.09,-11.68 -10.27,-23.301 -15.54,-34.891 -5.28,-11.582 -10.6,-23.125 -15.99,-34.609 h -0.63 l -10.3,139.617 h -46.48 L 2080.6,375.84 h -0.62 c -1.08,11.133 -2.05,22.402 -2.91,33.816 -0.86,11.399 -1.58,22.93 -2.15,34.571 -0.57,11.64 -1,23.398 -1.3,35.285 -0.29,11.875 -0.44,23.855 -0.44,35.945 h -46.13 c 0.18,-15.516 0.69,-31.18 1.56,-46.973 0.85,-15.789 1.98,-31.562 3.38,-47.324 1.4,-15.762 3.04,-31.418 4.93,-46.972 1.9,-15.555 3.98,-30.821 6.23,-45.821 h 52.74 l 57.77,127.637 h 0.53 l 9.95,-127.637 h 51.37 c 17.35,31.231 33.62,62.414 48.81,93.555 15.19,31.133 29.19,62.316 41.99,93.535 h -45.42" />
         <path
         id="path18"
         class="westermann"
         style="fill-opacity:1;fill-rule:nonzero;stroke:none"
         d="m 579.52,458.523 c -2.93,-7.703 -5.965,-15.418 -9.114,-23.132 -3.148,-7.727 -6.398,-15.442 -9.758,-23.149 -3.359,-7.703 -6.777,-15.371 -10.257,-23.015 -3.481,-7.649 -7,-15.262 -10.555,-22.852 h -0.402 l -6.809,92.148 h -30.68 l -41.406,-92.148 h -0.414 c -0.707,7.355 -1.348,14.797 -1.918,22.324 -0.57,7.52 -1.043,15.129 -1.418,22.813 -0.371,7.687 -0.656,15.449 -0.859,23.293 -0.192,7.832 -0.293,15.742 -0.293,23.718 h -30.438 c 0.117,-10.242 0.457,-20.574 1.024,-30.996 0.566,-10.418 1.308,-20.828 2.23,-31.23 0.926,-10.41 2.008,-20.742 3.258,-31.008 1.25,-10.262 2.625,-20.34 4.113,-30.23 h 34.805 l 38.125,84.226 h 0.351 l 6.567,-84.226 h 33.902 c 11.449,20.601 22.192,41.179 32.215,61.738 10.027,20.547 19.266,41.121 27.707,61.726 z m 138.011,-19.941 c -0.683,2.695 -1.746,5.215 -3.195,7.57 -1.445,2.34 -3.293,4.481 -5.543,6.426 -2.246,1.934 -4.938,3.594 -8.063,4.981 -3.128,1.386 -6.726,2.461 -10.796,3.23 -4.067,0.762 -8.637,1.145 -13.723,1.145 -6.688,0 -12.84,-0.723 -18.449,-2.18 -5.61,-1.445 -10.735,-3.469 -15.367,-6.063 -4.633,-2.609 -8.79,-5.703 -12.465,-9.296 -3.676,-3.606 -6.93,-7.532 -9.766,-11.797 -2.836,-4.258 -5.25,-8.789 -7.242,-13.575 -1.996,-4.785 -3.637,-9.687 -4.93,-14.699 -1.289,-5 -2.238,-10.027 -2.844,-15.066 -0.605,-5.051 -0.906,-9.973 -0.906,-14.785 0,-7.356 0.977,-13.711 2.934,-19.094 1.953,-5.371 4.961,-9.824 9.027,-13.34 4.07,-3.523 9.231,-6.133 15.485,-7.832 6.257,-1.699 13.707,-2.547 22.355,-2.547 3.824,0 7.746,0.164 11.758,0.496 4.008,0.332 7.949,0.793 11.812,1.379 3.875,0.582 7.59,1.309 11.149,2.168 3.558,0.86 6.804,1.817 9.738,2.871 v 22.879 c -2.734,-0.937 -5.672,-1.824 -8.801,-2.644 -3.125,-0.821 -6.32,-1.524 -9.59,-2.11 -3.265,-0.586 -6.539,-1.039 -9.824,-1.347 -3.285,-0.317 -6.43,-0.469 -9.441,-0.469 -4.813,0 -8.867,0.43 -12.172,1.289 -3.309,0.859 -5.984,2.187 -8.039,3.992 -2.051,1.797 -3.539,4.063 -4.457,6.797 -0.918,2.742 -1.379,5.988 -1.379,9.738 0,1.492 0.078,3.114 0.234,4.871 0.157,1.758 0.375,3.477 0.653,5.168 11.414,0.301 21.394,1.129 29.941,2.461 8.539,1.328 15.883,3.028 22.023,5.098 6.137,2.07 11.204,4.473 15.192,7.187 3.988,2.715 7.148,5.645 9.473,8.77 2.328,3.125 3.949,6.387 4.867,9.766 0.918,3.386 1.379,6.777 1.379,10.175 0,2.891 -0.336,5.692 -1.028,8.387 M 688,422.949 c -0.551,-1.664 -1.508,-3.246 -2.871,-4.746 -1.371,-1.504 -3.242,-2.922 -5.606,-4.23 -2.363,-1.309 -5.375,-2.45 -9.031,-3.426 -3.656,-0.977 -8.019,-1.75 -13.082,-2.317 -5.062,-0.566 -10.996,-0.847 -17.801,-0.847 0.86,3.203 1.899,6.23 3.11,9.09 1.211,2.851 2.605,5.48 4.191,7.89 1.59,2.403 3.332,4.59 5.25,6.563 1.918,1.984 3.992,3.652 6.223,5.019 2.226,1.368 4.625,2.414 7.183,3.133 2.563,0.727 5.266,1.086 8.125,1.086 2.426,0 4.582,-0.312 6.477,-0.937 1.895,-0.625 3.492,-1.493 4.781,-2.61 1.293,-1.109 2.254,-2.418 2.906,-3.933 0.645,-1.504 0.965,-3.114 0.965,-4.832 0,-1.606 -0.273,-3.243 -0.82,-4.903 m 126.703,35.047 c -2.191,0.578 -4.418,1.113 -6.687,1.594 -2.266,0.476 -4.614,0.898 -7.036,1.238 -2.425,0.352 -4.937,0.617 -7.539,0.813 -2.597,0.195 -5.328,0.293 -8.183,0.293 -5.399,0 -10.43,-0.469 -15.106,-1.379 -4.672,-0.926 -8.941,-2.246 -12.816,-3.965 -3.871,-1.719 -7.324,-3.817 -10.352,-6.301 -3.027,-2.488 -5.582,-5.281 -7.656,-8.387 -2.07,-3.117 -3.652,-6.492 -4.746,-10.156 -1.098,-3.652 -1.644,-7.539 -1.644,-11.641 0,-3.632 0.449,-7 1.347,-10.085 0.899,-3.086 2.262,-5.957 4.078,-8.625 1.817,-2.657 4.145,-5.098 6.981,-7.305 2.832,-2.207 6.187,-4.266 10.058,-6.192 2.504,-1.25 4.657,-2.39 6.453,-3.425 1.801,-1.035 3.333,-2.024 4.602,-2.961 1.27,-0.938 2.301,-1.848 3.082,-2.727 0.781,-0.875 1.387,-1.765 1.816,-2.644 0.434,-0.879 0.719,-1.797 0.848,-2.754 0.141,-0.957 0.211,-1.981 0.211,-3.074 0,-2.278 -0.453,-4.321 -1.351,-6.133 -0.899,-1.817 -2.223,-3.371 -3.961,-4.66 -1.739,-1.297 -3.856,-2.293 -6.364,-2.997 -2.5,-0.703 -5.355,-1.054 -8.562,-1.054 -4.926,0 -9.715,0.484 -14.371,1.465 -4.653,0.976 -9.246,2.312 -13.782,3.992 l -9.035,-24.641 c 2.778,-0.699 5.563,-1.344 8.36,-1.93 2.793,-0.585 5.64,-1.074 8.535,-1.476 2.89,-0.383 5.863,-0.684 8.918,-0.906 3.051,-0.215 6.234,-0.313 9.558,-0.313 5.317,0 10.371,0.469 15.161,1.406 4.793,0.938 9.218,2.293 13.289,4.071 4.066,1.777 7.734,3.957 10.996,6.515 3.265,2.559 6.043,5.457 8.328,8.711 2.289,3.242 4.058,6.797 5.308,10.672 1.25,3.867 1.879,8.02 1.879,12.434 0,3.562 -0.437,6.844 -1.316,9.851 -0.887,3.02 -2.254,5.821 -4.113,8.418 -1.856,2.598 -4.239,5 -7.153,7.188 -2.918,2.187 -6.445,4.269 -10.586,6.222 -3.714,1.836 -6.738,3.446 -9.062,4.832 -2.328,1.387 -4.137,2.723 -5.426,4.024 -1.293,1.289 -2.172,2.617 -2.641,3.984 -0.468,1.367 -0.703,2.93 -0.703,4.688 0,2.004 0.41,3.859 1.231,5.578 0.82,1.719 2,3.211 3.551,4.488 1.543,1.274 3.449,2.27 5.718,2.992 2.262,0.719 4.868,1.082 7.801,1.082 1.996,0 4.004,-0.097 6.043,-0.293 2.027,-0.195 4.043,-0.468 6.035,-0.82 1.996,-0.351 3.973,-0.801 5.926,-1.348 1.957,-0.546 3.891,-1.152 5.809,-1.816 z m 88.645,0.527 h -26.629 l 6.922,35.84 h -23.016 l -14.113,-35.84 H 829.09 l -4.399,-23.281 h 17.539 l -13.14,-67.156 c -1.289,-6.574 -1.531,-12.141 -0.731,-16.691 0.797,-4.559 2.411,-8.243 4.836,-11.067 2.422,-2.808 5.59,-4.851 9.504,-6.121 3.91,-1.269 8.348,-1.902 13.317,-1.902 1.996,0 4.066,0.066 6.214,0.203 2.153,0.137 4.262,0.332 6.336,0.586 2.071,0.254 4.036,0.558 5.895,0.91 1.855,0.351 3.531,0.738 5.016,1.172 l 4.164,21.758 h -9.793 c -2.039,0 -3.856,0.086 -5.457,0.261 -1.606,0.176 -2.985,0.508 -4.133,1.008 -1.16,0.488 -2.098,1.16 -2.82,2.012 -0.723,0.867 -1.239,1.941 -1.551,3.23 -0.313,1.289 -0.422,2.871 -0.328,4.727 0.097,1.855 0.386,4.031 0.847,6.531 l 11.871,60.539 h 26.735 z m 112.262,-19.941 c -0.68,2.695 -1.75,5.215 -3.19,7.57 -1.45,2.34 -3.3,4.481 -5.55,6.426 -2.25,1.934 -4.93,3.594 -8.061,4.981 -3.133,1.386 -6.731,2.461 -10.793,3.23 -4.067,0.762 -8.641,1.145 -13.727,1.145 -6.687,0 -12.836,-0.723 -18.445,-2.18 -5.617,-1.445 -10.739,-3.469 -15.371,-6.063 -4.633,-2.609 -8.789,-5.703 -12.461,-9.296 -3.676,-3.606 -6.934,-7.532 -9.766,-11.797 -2.84,-4.258 -5.254,-8.789 -7.246,-13.575 -1.996,-4.785 -3.641,-9.687 -4.93,-14.699 -1.289,-5 -2.234,-10.027 -2.843,-15.066 -0.606,-5.051 -0.911,-9.973 -0.911,-14.785 0,-7.356 0.977,-13.711 2.93,-19.094 1.957,-5.371 4.973,-9.824 9.035,-13.34 4.067,-3.523 9.235,-6.133 15.489,-7.832 6.253,-1.699 13.707,-2.547 22.347,-2.547 3.832,0 7.754,0.164 11.762,0.496 4.004,0.332 7.945,0.793 11.816,1.379 3.871,0.582 7.59,1.309 11.149,2.168 3.554,0.86 6.801,1.817 9.73,2.871 v 22.879 c -2.734,-0.937 -5.664,-1.824 -8.793,-2.644 -3.133,-0.821 -6.328,-1.524 -9.59,-2.11 -3.265,-0.586 -6.543,-1.039 -9.828,-1.347 -3.281,-0.317 -6.429,-0.469 -9.445,-0.469 -4.809,0 -8.859,0.43 -12.168,1.289 -3.305,0.859 -5.984,2.187 -8.035,3.992 -2.051,1.797 -3.539,4.063 -4.457,6.797 -0.918,2.742 -1.379,5.988 -1.379,9.738 0,1.492 0.078,3.114 0.234,4.871 0.157,1.758 0.371,3.477 0.645,5.168 11.418,0.301 21.402,1.129 29.945,2.461 8.539,1.328 15.887,3.028 22.024,5.098 6.14,2.07 11.207,4.473 15.193,7.187 3.99,2.715 7.14,5.645 9.47,8.77 2.33,3.125 3.95,6.387 4.87,9.766 0.92,3.386 1.38,6.777 1.38,10.175 0,2.891 -0.34,5.692 -1.03,8.387 m -29.532,-15.633 c -0.547,-1.664 -1.504,-3.246 -2.871,-4.746 -1.371,-1.504 -3.238,-2.922 -5.605,-4.23 -2.364,-1.309 -5.375,-2.45 -9.032,-3.426 -3.656,-0.977 -8.015,-1.75 -13.078,-2.317 -5.062,-0.566 -10.996,-0.847 -17.804,-0.847 0.859,3.203 1.894,6.23 3.113,9.09 1.203,2.851 2.605,5.48 4.187,7.89 1.582,2.403 3.336,4.59 5.254,6.563 1.914,1.984 3.985,3.652 6.215,5.019 2.227,1.368 4.625,2.414 7.184,3.133 2.562,0.727 5.269,1.086 8.125,1.086 2.422,0 4.586,-0.312 6.484,-0.937 1.895,-0.625 3.484,-1.493 4.781,-2.61 1.289,-1.109 2.254,-2.418 2.899,-3.933 0.648,-1.504 0.968,-3.114 0.968,-4.832 0,-1.606 -0.273,-3.243 -0.82,-4.903 m 129.932,37.215 c -1.06,0.313 -2.11,0.598 -3.14,0.828 -1.04,0.238 -2.1,0.422 -3.19,0.559 -1.1,0.137 -2.28,0.234 -3.55,0.293 -1.28,0.058 -2.67,0.09 -4.2,0.09 -2.19,0 -4.35,-0.293 -6.48,-0.891 -2.13,-0.586 -4.25,-1.453 -6.34,-2.605 -2.09,-1.153 -4.17,-2.551 -6.25,-4.192 -2.07,-1.641 -4.11,-3.504 -6.12,-5.574 -2.02,-2.07 -4.02,-4.336 -6.01,-6.809 -2,-2.461 -3.95,-5.078 -5.87,-7.851 l 1.47,24.511 h -22.88 l -23.99,-123.464 h 30.21 l 10.5,53.726 c 0.7,3.711 1.8,7.387 3.29,11 1.48,3.613 3.19,7.059 5.13,10.32 1.93,3.262 4.05,6.29 6.36,9.063 2.3,2.773 4.65,5.195 7.04,7.246 2.38,2.051 4.74,3.645 7.07,4.777 2.32,1.133 4.5,1.707 6.53,1.707 0.98,0 1.98,-0.058 3,-0.144 1.01,-0.098 2.01,-0.246 2.99,-0.449 0.98,-0.196 1.9,-0.403 2.79,-0.617 0.88,-0.204 1.65,-0.411 2.31,-0.614 z m 185.28,-18.848 c -1.31,4.317 -3.32,8.008 -6.04,11.086 -2.72,3.067 -6.17,5.418 -10.35,7.059 -4.19,1.652 -9.14,2.473 -14.84,2.473 -4.42,0 -8.7,-0.696 -12.85,-2.09 -4.15,-1.391 -8.08,-3.313 -11.79,-5.774 -3.71,-2.461 -7.19,-5.371 -10.44,-8.711 -3.25,-3.339 -6.12,-6.972 -8.62,-10.879 -0.59,4.18 -1.64,7.961 -3.14,11.348 -1.5,3.379 -3.55,6.27 -6.16,8.652 -2.59,2.383 -5.74,4.219 -9.43,5.508 -3.7,1.297 -8,1.946 -12.92,1.946 -4.42,0 -8.7,-0.696 -12.84,-2.09 -4.14,-1.391 -8.06,-3.305 -11.75,-5.742 -3.7,-2.454 -7.14,-5.317 -10.32,-8.594 -3.19,-3.293 -6.01,-6.848 -8.47,-10.676 l 2,23.691 h -23.46 l -23.99,-123.464 h 30.2 l 10.19,52.031 c 0.74,3.973 1.87,7.969 3.4,11.973 1.52,4.003 3.28,7.839 5.27,11.511 2,3.672 4.2,7.102 6.63,10.285 2.42,3.18 4.93,5.957 7.53,8.321 2.6,2.359 5.24,4.207 7.94,5.535 2.7,1.328 5.32,1.992 7.86,1.992 2.26,0 4.16,-0.352 5.68,-1.055 1.52,-0.703 2.76,-1.718 3.7,-3.047 0.93,-1.328 1.6,-2.941 1.99,-4.851 0.39,-1.914 0.58,-4.082 0.58,-6.508 0,-2.176 -0.13,-4.449 -0.41,-6.812 -0.27,-2.364 -0.66,-4.993 -1.17,-7.871 l -14.02,-71.504 h 30.21 l 10.14,52.031 c 0.79,3.973 1.93,7.969 3.44,11.973 1.5,4.003 3.26,7.839 5.28,11.511 2.01,3.672 4.23,7.102 6.66,10.285 2.42,3.18 4.93,5.957 7.53,8.321 2.6,2.359 5.24,4.207 7.92,5.535 2.68,1.328 5.29,1.992 7.83,1.992 2.31,0 4.22,-0.352 5.75,-1.055 1.52,-0.703 2.75,-1.718 3.7,-3.047 0.93,-1.328 1.6,-2.941 1.99,-4.851 0.39,-1.914 0.59,-4.082 0.59,-6.508 0,-2.176 -0.14,-4.449 -0.42,-6.812 -0.27,-2.364 -0.68,-4.993 -1.23,-7.871 l -13.96,-71.504 h 30.21 l 14.67,75.546 c 0.58,2.969 1.01,5.848 1.28,8.622 0.27,2.773 0.42,5.285 0.42,7.511 0,5.391 -0.66,10.254 -1.97,14.578 m 138,11.465 c -3.68,1.133 -7.49,2.199 -11.41,3.196 -3.94,0.996 -7.96,1.843 -12.09,2.546 -4.12,0.704 -8.37,1.262 -12.73,1.672 -4.36,0.41 -8.78,0.625 -13.28,0.625 -6.69,0 -12.88,-0.695 -18.57,-2.062 -5.68,-1.367 -10.91,-3.289 -15.68,-5.77 -4.77,-2.492 -9.09,-5.461 -12.94,-8.918 -3.85,-3.465 -7.27,-7.265 -10.27,-11.406 -2.99,-4.148 -5.57,-8.547 -7.77,-13.203 -2.18,-4.648 -4,-9.441 -5.42,-14.363 -1.43,-4.934 -2.48,-9.914 -3.14,-14.934 -0.66,-5.027 -1,-9.961 -1,-14.812 0,-6.485 0.73,-12.414 2.17,-17.774 1.45,-5.351 3.68,-9.961 6.69,-13.808 3.01,-3.86 6.84,-6.836 11.47,-8.946 4.63,-2.109 10.13,-3.164 16.51,-3.164 4.3,0 8.47,0.633 12.49,1.903 4.03,1.269 7.87,3.085 11.53,5.449 3.66,2.363 7.09,5.226 10.3,8.566 3.2,3.348 6.13,7.07 8.79,11.168 l -2.23,-23.687 h 23.64 z m -34.32,-20.234 -4.69,-24.402 c -0.86,-4.27 -2.05,-8.497 -3.58,-12.707 -1.53,-4.2 -3.3,-8.196 -5.34,-11.993 -2.03,-3.789 -4.27,-7.324 -6.71,-10.586 -2.44,-3.261 -4.98,-6.082 -7.6,-8.449 -2.62,-2.359 -5.3,-4.226 -8.03,-5.601 -2.74,-1.368 -5.42,-2.051 -8.04,-2.051 -2.34,0 -4.38,0.469 -6.1,1.402 -1.72,0.949 -3.15,2.375 -4.29,4.289 -1.13,1.914 -1.96,4.336 -2.52,7.266 -0.55,2.941 -0.82,6.379 -0.82,10.332 0,3.008 0.17,6.113 0.5,9.324 0.33,3.207 0.86,6.41 1.59,9.621 0.72,3.203 1.64,6.348 2.75,9.446 1.12,3.085 2.46,6.023 4.02,8.828 1.56,2.793 3.36,5.359 5.4,7.714 2.03,2.344 4.32,4.375 6.86,6.094 2.54,1.727 5.34,3.067 8.42,4.024 3.07,0.957 6.44,1.433 10.12,1.433 1.6,0 3.2,-0.097 4.81,-0.293 1.6,-0.195 3.17,-0.476 4.71,-0.847 1.55,-0.383 3.04,-0.801 4.46,-1.301 1.43,-0.488 2.79,-1.004 4.08,-1.543 m 160.11,8.769 c -1.35,4.317 -3.43,8.008 -6.25,11.086 -2.82,3.067 -6.39,5.418 -10.73,7.059 -4.34,1.652 -9.53,2.473 -15.54,2.473 -4.74,0 -9.27,-0.696 -13.61,-2.09 -4.34,-1.391 -8.41,-3.305 -12.2,-5.742 -3.79,-2.454 -7.3,-5.317 -10.5,-8.594 -3.21,-3.293 -6.05,-6.848 -8.51,-10.676 l 2.06,23.691 h -23.46 l -24,-123.464 h 30.21 l 10.15,51.992 c 0.74,3.984 1.87,7.984 3.39,11.988 1.53,4.008 3.32,7.844 5.37,11.527 2.05,3.672 4.31,7.098 6.79,10.282 2.48,3.183 5.07,5.968 7.77,8.32 2.69,2.371 5.46,4.219 8.31,5.547 2.86,1.328 5.65,1.992 8.38,1.992 2.5,0 4.6,-0.352 6.3,-1.055 1.7,-0.703 3.07,-1.718 4.1,-3.047 1.04,-1.328 1.78,-2.949 2.23,-4.863 0.45,-1.922 0.67,-4.09 0.67,-6.512 0,-2.191 -0.12,-4.464 -0.38,-6.828 -0.25,-2.363 -0.65,-5 -1.19,-7.89 l -13.91,-71.453 h 30.21 l 14.66,75.546 c 0.58,2.969 1.02,5.848 1.3,8.622 0.27,2.773 0.41,5.285 0.41,7.511 0,5.391 -0.68,10.254 -2.03,14.578 m 133.69,0 c -1.35,4.317 -3.44,8.008 -6.25,11.086 -2.81,3.067 -6.4,5.418 -10.73,7.059 -4.35,1.652 -9.53,2.473 -15.55,2.473 -4.74,0 -9.27,-0.696 -13.61,-2.09 -4.34,-1.391 -8.41,-3.305 -12.2,-5.742 -3.79,-2.454 -7.3,-5.317 -10.5,-8.594 -3.2,-3.293 -6.05,-6.848 -8.51,-10.676 l 2.05,23.691 h -23.45 l -24,-123.464 h 30.21 l 10.15,51.992 c 0.75,3.984 1.88,7.984 3.39,11.988 1.54,4.008 3.31,7.844 5.37,11.527 2.05,3.672 4.32,7.098 6.8,10.282 2.48,3.183 5.06,5.968 7.77,8.32 2.68,2.371 5.46,4.219 8.32,5.547 2.84,1.328 5.63,1.992 8.37,1.992 2.5,0 4.59,-0.352 6.29,-1.055 1.71,-0.703 3.08,-1.718 4.11,-3.047 1.04,-1.328 1.77,-2.949 2.22,-4.863 0.45,-1.922 0.68,-4.09 0.68,-6.512 0,-2.191 -0.13,-4.464 -0.38,-6.828 -0.25,-2.363 -0.65,-5 -1.2,-7.89 l -13.9,-71.453 h 30.2 l 14.66,75.546 c 0.6,2.969 1.03,5.848 1.3,8.622 0.27,2.773 0.41,5.285 0.41,7.511 0,5.391 -0.67,10.254 -2.02,14.578" />
      </g>
   </g>
</svg>
