<?xml version="1.0" standalone="no"?>
<!DOCTYPE svg PUBLIC "-//W3C//DTD SVG 20010904//EN"
 "http://www.w3.org/TR/2001/REC-SVG-20010904/DTD/svg10.dtd">
<svg version="1.0" xmlns="http://www.w3.org/2000/svg"
 width="43.000000pt" height="43.000000pt" viewBox="0 0 43.000000 43.000000"
 preserveAspectRatio="xMidYMid meet">
<metadata>
Created by potrace 1.15, written by Peter Selinger 2001-2017
</metadata>
<g transform="translate(0.000000,43.000000) scale(0.100000,-0.100000)"
fill="#ed1c24" stroke="none">
<path d="M140 419 c-79 -31 -137 -117 -138 -205 0 -67 38 -138 96 -179 39 -27
52 -30 117 -30 65 0 78 3 117 30 127 89 126 274 -1 359 -36 24 -57 30 -105 32
-34 1 -72 -2 -86 -7z m0 -136 c-1 -16 -1 -46 0 -68 1 -38 2 -39 12 -15 6 14
12 27 12 30 1 3 10 22 20 43 16 31 23 38 45 35 27 -3 28 -4 30 -93 l1 -40 14
30 c8 17 22 47 31 68 13 28 23 37 41 37 13 0 24 -2 24 -5 0 -3 -21 -48 -46
-100 -42 -88 -48 -95 -75 -95 -26 0 -29 3 -30 33 0 17 -4 40 -8 50 -5 15 -11
9 -31 -32 -20 -44 -27 -51 -52 -51 -15 0 -29 6 -30 13 -10 85 -16 176 -10 182
3 3 16 5 29 5 20 0 24 -5 23 -27z"/>
</g>
</svg>
