<svg
  xmlns="http://www.w3.org/2000/svg"
  viewBox="0 0 76 77"
  height="44"
  width="44"
  xml:space="preserve"
  id="logo-image"
  version="1.1">
   <g
     transform="matrix(1.3333333,0,0,-1.3333333,0,76)"
     id="g10">
      <g
        transform="scale(0.1)"
        id="g12">
         <path
           id="path14"
           style="fill:#de182c;fill-opacity:1;fill-rule:nonzero;stroke:none"
           d="M 566.934,283.461 C 566.934,126.91 440.02,-0.00390625 283.469,-0.00390625 126.91,-0.00390625 0,126.91 0,283.461 0,440.02 126.91,566.93 283.469,566.93 c 156.551,0 283.465,-126.91 283.465,-283.469"/>
         <path
           id="path16"
           style="fill:#ffffff;fill-opacity:1;fill-rule:nonzero;stroke:none"
           d="m 426.582,403.938 c -5.918,-15.563 -12.062,-31.149 -18.418,-46.747 -6.348,-15.609 -12.922,-31.183 -19.707,-46.75 -6.797,-15.562 -13.699,-31.07 -20.73,-46.511 -7.024,-15.45 -14.133,-30.84 -21.309,-46.16 h -0.832 l -13.75,186.168 H 269.863 L 186.199,217.77 h -0.828 c -1.43,14.851 -2.73,29.882 -3.879,45.085 -1.148,15.211 -2.101,30.583 -2.863,46.098 -0.754,15.531 -1.328,31.207 -1.731,47.055 -0.39,15.832 -0.593,31.816 -0.593,47.93 h -61.5 c 0.238,-20.696 0.922,-41.579 2.074,-62.629 1.144,-21.055 2.641,-42.086 4.508,-63.102 1.859,-21.016 4.047,-41.894 6.582,-62.625 2.523,-20.742 5.297,-41.105 8.304,-61.094 h 70.309 l 77.027,170.176 h 0.711 l 13.27,-170.176 h 68.484 c 23.145,41.629 44.832,83.203 65.086,124.727 20.258,41.519 38.918,83.086 55.981,124.723 h -60.559"/>
      </g>
   </g>
</svg>
